<svg xmlns="http://www.w3.org/2000/svg" xmlns:xlink="http://www.w3.org/1999/xlink" viewBox="0,0,256,256" width="464px" height="464px"><g fill="none" fill-rule="nonzero" stroke="none" stroke-width="1" stroke-linecap="butt" stroke-linejoin="miter" stroke-miterlimit="10" stroke-dasharray="" stroke-dashoffset="0" font-family="none" font-weight="none" font-size="none" text-anchor="none" style="mix-blend-mode: normal"><g transform="scale(0.55292,0.55292)"><path d="M410.531,179c0,71.29 -41.68,132.85 -102,161.64v18.36c0,23.167 -18.215,44 -45,44v44c0,8.84 -7.16,16 -16,16h-32c-8.84,0 -16,-7.16 -16,-16v-44c-26.707,0 -45,-20.75 -45,-44v-18.36c-60.32,-28.79 -102,-90.35 -102,-161.64c0,-98.86 80.141,-179 179.001,-179c98.86,0 178.999,80.14 178.999,179z" fill-opacity="0.52941" fill="#eef4f9"></path><path d="M154.531,340.64v18.36c0,23.167 18.215,44 45,44v44c0,8.836 7.163,16 16,16h32c8.837,0 16,-7.164 16,-16v-44c26.707,0 45,-20.75 45,-44v-18.36c-48.496,23.146 -105.445,23.174 -154,0z" fill="#d6d6d6"></path><path d="M304.986,50.387c-113.605,-15.879 -217.703,89.084 -201.872,202.437c2.464,17.644 -21.68,25.353 -29.995,9.597c-61.918,-117.327 22.537,-262.422 158.413,-262.421c29.973,0 58.229,7.368 83.051,20.392c15.778,8.279 8.05,32.461 -9.597,29.995z" fill-opacity="0.52941" fill="#eef7ff"></path><path d="M269.902,121.979c4.825,-3.062 10.797,1.714 8.866,7.092l-21.928,61.059c-4.044,11.255 -14.698,18.71 -26.63,18.71c-28.11,0 -38.89,-37.009 -15.08,-52.1z" fill-opacity="0" fill="#fe4f60"></path><path d="M336.188,74.343c-92.924,-92.921 -252.662,-27.274 -252.662,105.657c0,37.129 14.691,75 43.348,103.657c3.124,3.123 8.189,3.123 11.313,0l20,-20c3.125,-3.125 3.125,-8.189 0,-11.314c-3.124,-3.123 -8.189,-3.123 -11.313,0l-14.175,14.176c-19.443,-21.905 -30.904,-49.299 -32.863,-78.519h7.695c4.418,0 8,-3.582 8,-8c0,-4.418 -3.582,-8 -8,-8h-7.815c3.464,-67.142 57.036,-120.796 123.815,-124.763v7.763c0,4.418 3.582,8 8,8c4.418,0 8,-3.582 8,-8v-7.763c66.531,3.952 119.807,57.163 123.763,123.763h-7.763c-4.418,0 -8,3.582 -8,8c0,4.418 3.582,8 8,8h7.765c-1.758,29.597 -13.244,57.346 -32.932,79.519l-14.176,-14.176c-3.125,-3.123 -8.189,-3.123 -11.314,0c-3.124,3.125 -3.124,8.189 0,11.314c21.573,21.573 21.239,22.343 25.657,22.343c2.048,0 4.095,-0.781 5.657,-2.343c57.844,-57.846 57.851,-151.461 0,-209.314z" fill="#ffffff"></path><path d="M269.531,291h-76c-4.418,0 -8,-3.582 -8,-8c0,-4.418 3.582,-8 8,-8h76c4.418,0 8,3.582 8,8c0,4.418 -3.582,8 -8,8z" fill="#d6d6d6"></path><path d="M278.769,129.071c-3.436,9.575 -3.797,12.386 -7.873,14.972c-37.817,23.999 -41.773,24.96 -46.218,34.282c-6.222,13.048 -26.079,4.826 -20.633,-8.565c2.038,-5.012 5.666,-9.584 11.086,-13.02l54.772,-34.761c4.829,-3.06 10.795,1.712 8.866,7.092z" fill-opacity="0" fill="#ff6d7a"></path><path d="M308.531,340.64c-0.004,7.431 -0.003,11.887 -0.002,14.605c0.001,3.167 -1.862,6.043 -4.76,7.322c-45.858,20.238 -98.598,20.248 -144.478,-0.001c-2.898,-1.279 -4.762,-4.156 -4.76,-7.324c0.002,-2.654 0.004,-7.051 0,-14.602c48.496,23.146 105.445,23.174 154,0z" fill="#909090"></path><path d="M263.531,403v12.97c0,4.418 -3.582,8 -8,8h-48c-4.418,0 -8,-3.582 -8,-8v-12.97z" fill="#909090"></path></g></g></svg>