<svg xmlns="http://www.w3.org/2000/svg"  viewBox="0 0 48 48" preserveAspectRatio="xMinYMin" width="auto" height="auto"><radialGradient id="cUFRUQWcl8FzO6eaj0kExa" cx="19.906" cy="24.876" r="19.009" gradientUnits="userSpaceOnUse"><stop offset=".313" stop-color="#fcfcfc"/><stop offset=".465" stop-color="#eff0f1"/><stop offset=".741" stop-color="#ced1d3"/><stop offset="1" stop-color="#aaafb3"/></radialGradient><path fill="url(#cUFRUQWcl8FzO6eaj0kExa)" d="M16,7C9.925,7,5,11.925,5,18s4.925,11,11,11s11-4.925,11-11S22.075,7,16,7z"/><radialGradient id="cUFRUQWcl8FzO6eaj0kExb" cx="15.71" cy="13.25" r="3.456" gradientUnits="userSpaceOnUse"><stop offset=".313" stop-color="#9da2a6" stop-opacity="0"/><stop offset="1" stop-color="#9da2a6"/></radialGradient><path fill="url(#cUFRUQWcl8FzO6eaj0kExb)" d="M15,10c-1.105,0-2,0.895-2,2s0.895,2,2,2s2-0.895,2-2S16.105,10,15,10z"/><radialGradient id="cUFRUQWcl8FzO6eaj0kExc" cx="10.355" cy="18.625" r="1.728" gradientUnits="userSpaceOnUse"><stop offset=".313" stop-color="#9da2a6" stop-opacity="0"/><stop offset="1" stop-color="#9da2a6"/></radialGradient><path fill="url(#cUFRUQWcl8FzO6eaj0kExc)" d="M10,17c-0.552,0-1,0.448-1,1s0.448,1,1,1s1-0.448,1-1S10.552,17,10,17z"/><linearGradient id="cUFRUQWcl8FzO6eaj0kExd" x1="22.313" x2="26.618" y1="16.079" y2="41.448" gradientUnits="userSpaceOnUse"><stop offset="0" stop-color="#bac0ff"/><stop offset=".398" stop-color="#8a91e7"/><stop offset=".796" stop-color="#6069d1"/><stop offset="1" stop-color="#5059c9"/></linearGradient><path fill="url(#cUFRUQWcl8FzO6eaj0kExd)" d="M35,21c-0.331,0-0.657,0.018-0.98,0.049C31.741,17.99,28.108,16,24,16	c-5.713,0-10.52,3.837-12.012,9.071C8.049,25.569,5,28.925,5,33c0,4.418,3.582,8,8,8c1.818,0,20.107,0,22,0c5.523,0,10-4.477,10-10	C45,25.477,40.523,21,35,21z"/></svg>