<svg xmlns="http://www.w3.org/2000/svg"  viewBox="0 0 48 48" preserveAspectRatio="xMinYMin" width="auto" height="auto"><linearGradient id="DzVMkEvtF1jI0IITtBM16a" x1="5.285" x2="38.113" y1="5.285" y2="38.113" gradientUnits="userSpaceOnUse"><stop offset="0" stop-color="#fed100"/><stop offset="1" stop-color="#e36001"/></linearGradient><path fill="url(#DzVMkEvtF1jI0IITtBM16a)" d="M24,4C12.954,4,4,12.954,4,24s8.954,20,20,20s20-8.954,20-20S35.046,4,24,4z"/><path fill="#199be2" d="M5.675,32H4c-1.104,0-2,0.896-2,2s0.896,2,2,2h3c1.104,0,2,0.896,2,2s-0.896,2-2,2s-2,0.896-2,2	s0.896,2,2,2h17C15.801,44,8.763,39.061,5.675,32z"/><path fill="#199be2" d="M42,40h-6.036c-3.339,2.501-7.471,4-11.964,4h18c0.8,0,1.485-0.473,1.805-1.152h0.001l0.001-0.002	c0.057-0.123,0.104-0.25,0.135-0.385c0.002-0.008,0.006-0.016,0.008-0.023C43.98,42.296,44,42.15,44,42C44,40.896,43.104,40,42,40z"/><path fill="#35c1f1" d="M30,40c-1.104,0-2-0.896-2-2s0.896-2,2-2h6c1.104,0,2-0.896,2-2s-0.896-2-2-2h-9h-3h-4	c-1.104,0-2-0.896-2-2c0-1.102,0.89-1.994,1.99-1.999H22c1.104,0,2-0.896,2-2V26c0-1.104-0.896-2-2-2H8v0.001c-1.104,0-2,0.896-2,2	s0.896,2,2,2V28h2c1.105,0,2,0.895,2,2c0,1.105-0.895,2-2,2H5.675C8.763,39.061,15.801,44,24,44c4.492,0,8.625-1.499,11.964-4H30z"/></svg>