<svg xmlns="http://www.w3.org/2000/svg"  viewBox="0 0 48 48" preserveAspectRatio="xMinYMin" width="auto" height="auto"><radialGradient id="ZZyZRLhS4AwOMObxV9iCza" cx="40.31" cy="43.238" r="43.767" gradientUnits="userSpaceOnUse"><stop offset="0" stop-color="#6d75d6"/><stop offset=".123" stop-color="#8189de"/><stop offset=".384" stop-color="#a7adec"/><stop offset=".625" stop-color="#c3c7f6"/><stop offset=".838" stop-color="#d3d6fd"/><stop offset="1" stop-color="#d9dcff"/></radialGradient><path fill="url(#ZZyZRLhS4AwOMObxV9iCza)" d="M24,4C12.954,4,4,12.954,4,24s8.954,20,20,20s20-8.954,20-20S35.046,4,24,4z"/><radialGradient id="ZZyZRLhS4AwOMObxV9iCzb" cx="14.275" cy="-3.441" r="5.386" gradientTransform="translate(8.325 18.188) scale(.9625)" gradientUnits="userSpaceOnUse"><stop offset=".313" stop-color="#6063e0" stop-opacity="0"/><stop offset="1" stop-color="#6063e0"/></radialGradient><path fill="url(#ZZyZRLhS4AwOMObxV9iCzb)" d="M21,10c-1.657,0-3,1.343-3,3s1.343,3,3,3s3-1.343,3-3S22.657,10,21,10z"/><radialGradient id="ZZyZRLhS4AwOMObxV9iCzc" cx="13.71" cy="25.25" r="3.456" gradientUnits="userSpaceOnUse"><stop offset=".313" stop-color="#6063e0" stop-opacity="0"/><stop offset="1" stop-color="#6063e0"/></radialGradient><path fill="url(#ZZyZRLhS4AwOMObxV9iCzc)" d="M13,22c-1.105,0-2,0.895-2,2s0.895,2,2,2s2-0.895,2-2S14.105,22,13,22z"/><radialGradient id="ZZyZRLhS4AwOMObxV9iCzd" cx="37.033" cy="22.438" r="2.592" gradientUnits="userSpaceOnUse"><stop offset=".313" stop-color="#6063e0" stop-opacity="0"/><stop offset="1" stop-color="#6063e0"/></radialGradient><path fill="url(#ZZyZRLhS4AwOMObxV9iCzd)" d="M36.5,20c-0.828,0-1.5,0.672-1.5,1.5s0.672,1.5,1.5,1.5s1.5-0.672,1.5-1.5S37.328,20,36.5,20z"/><path fill="#5059c9" d="M5.675,32H4c-1.104,0-2,0.896-2,2s0.896,2,2,2h3c1.104,0,2,0.896,2,2s-0.896,2-2,2s-2,0.896-2,2	s0.896,2,2,2h17C15.801,44,8.763,39.061,5.675,32z"/><path fill="#5059c9" d="M42,40h-6.036c-3.339,2.501-7.471,4-11.964,4h18c0.8,0,1.485-0.473,1.805-1.152h0.001l0.001-0.002	c0.057-0.123,0.104-0.25,0.135-0.385c0.002-0.008,0.006-0.016,0.008-0.023C43.98,42.296,44,42.15,44,42C44,40.896,43.104,40,42,40z"/><path fill="#7b83eb" d="M30,40c-1.104,0-2-0.896-2-2s0.896-2,2-2h6c1.104,0,2-0.896,2-2s-0.896-2-2-2h-9h-3h-4	c-1.104,0-2-0.896-2-2c0-1.102,0.89-1.994,1.99-1.999H22c1.104,0,2-0.896,2-2V26c0-1.104-0.896-2-2-2H8v0.001c-1.104,0-2,0.896-2,2	s0.896,2,2,2V28h2c1.105,0,2,0.895,2,2c0,1.105-0.895,2-2,2H5.675C8.763,39.061,15.801,44,24,44c4.492,0,8.625-1.499,11.964-4H30z"/></svg>