<svg xmlns="http://www.w3.org/2000/svg"  viewBox="0 0 48 48" preserveAspectRatio="xMinYMin" width="auto" height="auto"><linearGradient id="WS95cs_Y~2jivUCuYYgg8a" x1="21.313" x2="25.618" y1="6.079" y2="31.448" gradientUnits="userSpaceOnUse"><stop offset="0" stop-color="#fcfcfc"/><stop offset="1" stop-color="#c3c9cd"/></linearGradient><path fill="url(#WS95cs_Y~2jivUCuYYgg8a)" d="M34,11c-0.331,0-0.657,0.018-0.98,0.049C30.741,7.99,27.108,6,23,6	c-5.713,0-10.52,3.837-12.012,9.071C7.049,15.569,4,18.925,4,23c0,4.418,3.582,8,8,8c1.818,0,20.107,0,22,0c5.523,0,10-4.477,10-10	C44,15.477,39.523,11,34,11z"/><path fill="#199be2" d="M31.049,38.649c-0.469,0.469-1.228,0.469-1.697,0c-0.469-0.469-0.469-1.228,0-1.697	C29.82,36.483,32,36,32,36S31.517,38.18,31.049,38.649z"/><path fill="#199be2" d="M20.414,40.414c-0.781,0.781-2.047,0.781-2.828,0c-0.781-0.781-0.781-2.047,0-2.828	C18.367,36.805,22,36,22,36S21.195,39.633,20.414,40.414z"/></svg>