<svg xmlns="http://www.w3.org/2000/svg"  viewBox="0 0 48 48" preserveAspectRatio="xMinYMin" width="auto" height="auto"><linearGradient id="y7r6QEOa60m6zB~6MEX5za" x1="21.313" x2="25.618" y1="6.079" y2="31.448" gradientUnits="userSpaceOnUse"><stop offset="0" stop-color="#fcfcfc"/><stop offset="1" stop-color="#c3c9cd"/></linearGradient><path fill="url(#y7r6QEOa60m6zB~6MEX5za)" d="M34,11c-0.331,0-0.657,0.018-0.98,0.049C30.741,7.99,27.108,6,23,6	c-5.713,0-10.52,3.837-12.012,9.071C7.049,15.569,4,18.925,4,23c0,4.418,3.582,8,8,8c1.818,0,20.107,0,22,0c5.523,0,10-4.477,10-10	C44,15.477,39.523,11,34,11z"/><path fill="#199be2" d="M32.414,40.414c-0.781,0.781-2.047,0.781-2.828,0c-0.781-0.781-0.781-2.047,0-2.828	C30.367,36.805,34,36,34,36S33.195,39.633,32.414,40.414z"/><path fill="#199be2" d="M15.414,38.414c-0.781,0.781-2.047,0.781-2.828,0c-0.781-0.781-0.781-2.047,0-2.828	C13.367,34.805,17,34,17,34S16.195,37.633,15.414,38.414z"/><path fill="#199be2" d="M22.414,46.414c-0.781,0.781-2.047,0.781-2.828,0c-0.781-0.781-0.781-2.047,0-2.828	C20.367,42.805,24,42,24,42S23.195,45.633,22.414,46.414z"/></svg>