<svg xmlns="http://www.w3.org/2000/svg"  viewBox="0 0 48 48" preserveAspectRatio="xMinYMin" width="auto" height="auto"><linearGradient id="8sg94n2phz1q4fu1mO0jGa" x1="21.313" x2="25.618" y1="6.079" y2="31.448" gradientUnits="userSpaceOnUse"><stop offset="0" stop-color="#fcfcfc"/><stop offset="1" stop-color="#c3c9cd"/></linearGradient><path fill="url(#8sg94n2phz1q4fu1mO0jGa)" d="M34,11c-0.331,0-0.657,0.018-0.98,0.049C30.741,7.99,27.108,6,23,6	c-5.713,0-10.52,3.837-12.012,9.071C7.049,15.569,4,18.925,4,23c0,4.418,3.582,8,8,8c1.818,0,20.107,0,22,0c5.523,0,10-4.477,10-10	C44,15.477,39.523,11,34,11z"/><linearGradient id="8sg94n2phz1q4fu1mO0jGb" x1="24.069" x2="24.721" y1="33.551" y2="38.051" gradientUnits="userSpaceOnUse"><stop offset="0" stop-color="#2aa4f4"/><stop offset=".595" stop-color="#0f80e3"/><stop offset="1" stop-color="#006dd9"/></linearGradient><path fill="url(#8sg94n2phz1q4fu1mO0jGb)" d="M26,36.5c0,0.828-0.672,1.5-1.5,1.5S23,37.328,23,36.5c0-0.681,1.015-2.353,1.375-2.925	c0.058-0.093,0.191-0.093,0.25,0C24.985,34.147,26,35.819,26,36.5z"/><linearGradient id="8sg94n2phz1q4fu1mO0jGc" x1="22.712" x2="23.148" y1="41.034" y2="44.034" gradientUnits="userSpaceOnUse"><stop offset="0" stop-color="#2aa4f4"/><stop offset=".595" stop-color="#0f80e3"/><stop offset="1" stop-color="#006dd9"/></linearGradient><path fill="url(#8sg94n2phz1q4fu1mO0jGc)" d="M24,43c0,0.552-0.448,1-1,1s-1-0.448-1-1c0-0.454,0.677-1.569,0.917-1.95	c0.039-0.062,0.128-0.062,0.166,0C23.323,41.431,24,42.546,24,43z"/><linearGradient id="8sg94n2phz1q4fu1mO0jGd" x1="17.712" x2="18.148" y1="34.034" y2="37.034" gradientUnits="userSpaceOnUse"><stop offset="0" stop-color="#2aa4f4"/><stop offset=".595" stop-color="#0f80e3"/><stop offset="1" stop-color="#006dd9"/></linearGradient><path fill="url(#8sg94n2phz1q4fu1mO0jGd)" d="M19,36c0,0.552-0.448,1-1,1s-1-0.448-1-1c0-0.454,0.677-1.569,0.917-1.95	c0.039-0.062,0.128-0.062,0.166,0C18.323,34.431,19,35.546,19,36z"/><linearGradient id="8sg94n2phz1q4fu1mO0jGe" x1="16.069" x2="16.721" y1="40.551" y2="45.051" gradientUnits="userSpaceOnUse"><stop offset="0" stop-color="#2aa4f4"/><stop offset=".595" stop-color="#0f80e3"/><stop offset="1" stop-color="#006dd9"/></linearGradient><path fill="url(#8sg94n2phz1q4fu1mO0jGe)" d="M18,43.5c0,0.828-0.672,1.5-1.5,1.5c-0.828,0-1.5-0.672-1.5-1.5	c0-0.681,1.015-2.353,1.375-2.925c0.058-0.093,0.191-0.093,0.25,0C16.985,41.147,18,42.819,18,43.5z"/><linearGradient id="8sg94n2phz1q4fu1mO0jGf" x1="31.712" x2="32.148" y1="34.034" y2="37.034" gradientUnits="userSpaceOnUse"><stop offset="0" stop-color="#2aa4f4"/><stop offset=".595" stop-color="#0f80e3"/><stop offset="1" stop-color="#006dd9"/></linearGradient><path fill="url(#8sg94n2phz1q4fu1mO0jGf)" d="M33,36c0,0.552-0.448,1-1,1s-1-0.448-1-1c0-0.454,0.677-1.569,0.917-1.95	c0.039-0.062,0.128-0.062,0.166,0C32.323,34.431,33,35.546,33,36z"/><linearGradient id="8sg94n2phz1q4fu1mO0jGg" x1="30.069" x2="30.721" y1="40.551" y2="45.051" gradientUnits="userSpaceOnUse"><stop offset="0" stop-color="#2aa4f4"/><stop offset=".595" stop-color="#0f80e3"/><stop offset="1" stop-color="#006dd9"/></linearGradient><path fill="url(#8sg94n2phz1q4fu1mO0jGg)" d="M32,43.5c0,0.828-0.672,1.5-1.5,1.5S29,44.328,29,43.5c0-0.681,1.015-2.353,1.375-2.925	c0.058-0.093,0.191-0.093,0.25,0C30.985,41.147,32,42.819,32,43.5z"/></svg>