<svg xmlns="http://www.w3.org/2000/svg"  viewBox="0 0 48 48" preserveAspectRatio="xMinYMin" width="auto" height="auto"><linearGradient id="bUyvLn2ZNUXzBZVXqhoyCa" x1="21.313" x2="25.618" y1="6.079" y2="31.448" gradientUnits="userSpaceOnUse"><stop offset="0" stop-color="#fcfcfc"/><stop offset="1" stop-color="#c3c9cd"/></linearGradient><path fill="url(#bUyvLn2ZNUXzBZVXqhoyCa)" d="M34,11c-0.331,0-0.657,0.018-0.98,0.049C30.741,7.99,27.108,6,23,6	c-5.713,0-10.52,3.837-12.012,9.071C7.049,15.569,4,18.925,4,23c0,4.418,3.582,8,8,8c1.818,0,20.107,0,22,0c5.523,0,10-4.477,10-10	C44,15.477,39.523,11,34,11z"/><linearGradient id="bUyvLn2ZNUXzBZVXqhoyCb" x1="20.069" x2="20.721" y1="33.551" y2="38.051" gradientUnits="userSpaceOnUse"><stop offset="0" stop-color="#2aa4f4"/><stop offset=".595" stop-color="#0f80e3"/><stop offset="1" stop-color="#006dd9"/></linearGradient><path fill="url(#bUyvLn2ZNUXzBZVXqhoyCb)" d="M22,36.5c0,0.828-0.672,1.5-1.5,1.5S19,37.328,19,36.5c0-0.681,1.015-2.353,1.375-2.925	c0.058-0.093,0.191-0.093,0.25,0C20.985,34.147,22,35.819,22,36.5z"/><linearGradient id="bUyvLn2ZNUXzBZVXqhoyCc" x1="18.712" x2="19.148" y1="41.034" y2="44.034" gradientUnits="userSpaceOnUse"><stop offset="0" stop-color="#2aa4f4"/><stop offset=".595" stop-color="#0f80e3"/><stop offset="1" stop-color="#006dd9"/></linearGradient><path fill="url(#bUyvLn2ZNUXzBZVXqhoyCc)" d="M20,43c0,0.552-0.448,1-1,1s-1-0.448-1-1c0-0.454,0.677-1.569,0.917-1.95	c0.039-0.062,0.128-0.062,0.166,0C19.323,41.431,20,42.546,20,43z"/><linearGradient id="bUyvLn2ZNUXzBZVXqhoyCd" x1="34.069" x2="34.721" y1="33.551" y2="38.051" gradientUnits="userSpaceOnUse"><stop offset="0" stop-color="#2aa4f4"/><stop offset=".595" stop-color="#0f80e3"/><stop offset="1" stop-color="#006dd9"/></linearGradient><path fill="url(#bUyvLn2ZNUXzBZVXqhoyCd)" d="M36,36.5c0,0.828-0.672,1.5-1.5,1.5S33,37.328,33,36.5c0-0.681,1.015-2.353,1.375-2.925	c0.058-0.093,0.191-0.093,0.25,0C34.985,34.147,36,35.819,36,36.5z"/><linearGradient id="bUyvLn2ZNUXzBZVXqhoyCe" x1="32.712" x2="33.148" y1="41.034" y2="44.034" gradientUnits="userSpaceOnUse"><stop offset="0" stop-color="#2aa4f4"/><stop offset=".595" stop-color="#0f80e3"/><stop offset="1" stop-color="#006dd9"/></linearGradient><path fill="url(#bUyvLn2ZNUXzBZVXqhoyCe)" d="M34,43c0,0.552-0.448,1-1,1s-1-0.448-1-1c0-0.454,0.677-1.569,0.917-1.95	c0.039-0.062,0.128-0.062,0.166,0C33.323,41.431,34,42.546,34,43z"/><linearGradient id="bUyvLn2ZNUXzBZVXqhoyCf" x1="13.713" x2="14.148" y1="34.034" y2="37.034" gradientUnits="userSpaceOnUse"><stop offset="0" stop-color="#2aa4f4"/><stop offset=".595" stop-color="#0f80e3"/><stop offset="1" stop-color="#006dd9"/></linearGradient><path fill="url(#bUyvLn2ZNUXzBZVXqhoyCf)" d="M15,36c0,0.552-0.448,1-1,1s-1-0.448-1-1c0-0.454,0.677-1.569,0.917-1.95	c0.039-0.062,0.128-0.062,0.166,0C14.323,34.431,15,35.546,15,36z"/><linearGradient id="bUyvLn2ZNUXzBZVXqhoyCg" x1="12.069" x2="12.721" y1="40.551" y2="45.051" gradientUnits="userSpaceOnUse"><stop offset="0" stop-color="#2aa4f4"/><stop offset=".595" stop-color="#0f80e3"/><stop offset="1" stop-color="#006dd9"/></linearGradient><path fill="url(#bUyvLn2ZNUXzBZVXqhoyCg)" d="M14,43.5c0,0.828-0.672,1.5-1.5,1.5S11,44.328,11,43.5c0-0.681,1.015-2.353,1.375-2.925	c0.058-0.093,0.191-0.093,0.25,0C12.985,41.147,14,42.819,14,43.5z"/><linearGradient id="bUyvLn2ZNUXzBZVXqhoyCh" x1="27.712" x2="28.148" y1="34.034" y2="37.034" gradientUnits="userSpaceOnUse"><stop offset="0" stop-color="#2aa4f4"/><stop offset=".595" stop-color="#0f80e3"/><stop offset="1" stop-color="#006dd9"/></linearGradient><path fill="url(#bUyvLn2ZNUXzBZVXqhoyCh)" d="M29,36c0,0.552-0.448,1-1,1s-1-0.448-1-1c0-0.454,0.677-1.569,0.917-1.95	c0.039-0.062,0.128-0.062,0.166,0C28.323,34.431,29,35.546,29,36z"/><linearGradient id="bUyvLn2ZNUXzBZVXqhoyCi" x1="26.069" x2="26.721" y1="40.551" y2="45.051" gradientUnits="userSpaceOnUse"><stop offset="0" stop-color="#2aa4f4"/><stop offset=".595" stop-color="#0f80e3"/><stop offset="1" stop-color="#006dd9"/></linearGradient><path fill="url(#bUyvLn2ZNUXzBZVXqhoyCi)" d="M28,43.5c0,0.828-0.672,1.5-1.5,1.5S25,44.328,25,43.5c0-0.681,1.015-2.353,1.375-2.925	c0.058-0.093,0.191-0.093,0.25,0C26.985,41.147,28,42.819,28,43.5z"/></svg>