<svg xmlns="http://www.w3.org/2000/svg"  viewBox="0 0 48 48" preserveAspectRatio="xMinYMin" width="auto" height="auto"><linearGradient id="CxREippoAM05Jj7lziINsa" x1="21.313" x2="25.618" y1="6.079" y2="31.448" gradientUnits="userSpaceOnUse"><stop offset="0" stop-color="#fcfcfc"/><stop offset="1" stop-color="#c3c9cd"/></linearGradient><path fill="url(#CxREippoAM05Jj7lziINsa)" d="M34,11c-0.331,0-0.657,0.018-0.98,0.049C30.741,7.99,27.108,6,23,6	c-5.713,0-10.52,3.837-12.012,9.071C7.049,15.569,4,18.925,4,23c0,4.418,3.582,8,8,8c1.818,0,20.107,0,22,0c5.523,0,10-4.477,10-10	C44,15.477,39.523,11,34,11z"/><path fill="#199be2" d="M35.414,39.414c-0.781,0.781-2.047,0.781-2.828,0c-0.781-0.781-0.781-2.047,0-2.828	C33.367,35.805,37,35,37,35S36.195,38.633,35.414,39.414z"/><path fill="#199be2" d="M12.414,38.414c-0.781,0.781-2.047,0.781-2.828,0c-0.781-0.781-0.781-2.047,0-2.828	C10.367,34.805,14,34,14,34S13.195,37.633,12.414,38.414z"/><path fill="#199be2" d="M22,46c-0.553,0-1-0.448-1-1v-6c0-0.552,0.447-1,1-1s1,0.448,1,1v6C23,45.552,22.553,46,22,46z"/><path fill="#199be2" d="M19.403,44.5c-0.346,0-0.682-0.179-0.867-0.5c-0.276-0.478-0.112-1.09,0.366-1.366l5.195-3	c0.477-0.276,1.089-0.113,1.366,0.366c0.276,0.478,0.112,1.09-0.366,1.366l-5.195,3C19.745,44.457,19.573,44.5,19.403,44.5z"/><path fill="#199be2" d="M24.597,44.5c-0.17,0-0.342-0.043-0.499-0.134l-5.195-3C18.424,41.09,18.26,40.478,18.536,40	c0.276-0.479,0.889-0.643,1.366-0.366l5.195,3c0.479,0.276,0.643,0.888,0.366,1.366C25.278,44.321,24.942,44.5,24.597,44.5z"/></svg>