<svg xmlns="http://www.w3.org/2000/svg"  viewBox="0 0 48 48" preserveAspectRatio="xMinYMin" width="auto" height="auto"><linearGradient id="rOoOM8Uta6Ms8UEKZpHUua" x1="21.313" x2="25.618" y1="6.079" y2="31.448" gradientUnits="userSpaceOnUse"><stop offset="0" stop-color="#fcfcfc"/><stop offset="1" stop-color="#c3c9cd"/></linearGradient><path fill="url(#rOoOM8Uta6Ms8UEKZpHUua)" d="M34,11c-0.331,0-0.657,0.018-0.98,0.049C30.741,7.99,27.108,6,23,6	c-5.713,0-10.52,3.837-12.012,9.071C7.049,15.569,4,18.925,4,23c0,4.418,3.582,8,8,8c1.818,0,20.107,0,22,0c5.523,0,10-4.477,10-10	C44,15.477,39.523,11,34,11z"/><path fill="#199be2" d="M22,28c-0.553,0-1-0.447-1-1v-6c0-0.553,0.447-1,1-1s1,0.447,1,1v6C23,27.553,22.553,28,22,28z"/><path fill="#199be2" d="M19.403,26.5c-0.346,0-0.682-0.179-0.867-0.5c-0.276-0.479-0.112-1.09,0.366-1.366l5.195-3	c0.477-0.276,1.089-0.113,1.366,0.366c0.276,0.479,0.112,1.09-0.366,1.366l-5.195,3C19.745,26.457,19.573,26.5,19.403,26.5z"/><path fill="#199be2" d="M24.597,26.5c-0.17,0-0.342-0.043-0.499-0.134l-5.195-3C18.424,23.09,18.26,22.479,18.536,22	c0.276-0.479,0.889-0.643,1.366-0.366l5.195,3c0.479,0.276,0.643,0.888,0.366,1.366C25.278,26.321,24.942,26.5,24.597,26.5z"/><path fill="#199be2" d="M17,45c-0.553,0-1-0.447-1-1v-6c0-0.553,0.447-1,1-1s1,0.447,1,1v6C18,44.553,17.553,45,17,45z"/><path fill="#199be2" d="M14.403,43.5c-0.346,0-0.682-0.179-0.867-0.5c-0.276-0.479-0.112-1.09,0.366-1.366l5.195-3	c0.477-0.277,1.089-0.113,1.366,0.366c0.276,0.479,0.112,1.09-0.366,1.366l-5.195,3C14.745,43.457,14.573,43.5,14.403,43.5z"/><path fill="#199be2" d="M19.597,43.5c-0.17,0-0.342-0.043-0.499-0.134l-5.195-3C13.424,40.09,13.26,39.479,13.536,39	c0.276-0.479,0.888-0.644,1.366-0.366l5.195,3c0.479,0.276,0.643,0.888,0.366,1.366C20.278,43.321,19.942,43.5,19.597,43.5z"/><path fill="#199be2" d="M32,41c-0.553,0-1-0.447-1-1v-6c0-0.553,0.447-1,1-1s1,0.447,1,1v6C33,40.553,32.553,41,32,41z"/><path fill="#199be2" d="M29.403,39.5c-0.346,0-0.682-0.179-0.867-0.5c-0.276-0.479-0.112-1.09,0.366-1.366l5.195-3	c0.476-0.276,1.089-0.113,1.366,0.366c0.276,0.479,0.112,1.09-0.366,1.366l-5.195,3C29.745,39.457,29.573,39.5,29.403,39.5z"/><path fill="#199be2" d="M34.597,39.5c-0.17,0-0.342-0.043-0.499-0.134l-5.195-3C28.424,36.09,28.26,35.479,28.536,35	c0.276-0.479,0.889-0.643,1.366-0.366l5.195,3c0.479,0.276,0.643,0.888,0.366,1.366C35.278,39.321,34.942,39.5,34.597,39.5z"/></svg>