<svg xmlns="http://www.w3.org/2000/svg"  viewBox="0 0 48 48" preserveAspectRatio="xMinYMin" width="auto" height="auto"><path fill="#199be2" d="M38.501,18.33c-0.346,0-0.682-0.179-0.867-0.5l-5-8.66C32.357,8.691,32.521,8.08,33,7.804	c0.477-0.276,1.089-0.113,1.366,0.366l5,8.66c0.276,0.479,0.112,1.09-0.366,1.366C38.843,18.287,38.671,18.33,38.501,18.33z"/><path fill="#199be2" d="M33.499,18.33c-0.17,0-0.342-0.043-0.499-0.134c-0.479-0.276-0.643-0.888-0.366-1.366l5-8.66	C37.911,7.691,38.521,7.527,39,7.804s0.643,0.888,0.366,1.366l-5,8.66C34.181,18.151,33.845,18.33,33.499,18.33z"/><path fill="#199be2" d="M41,14H31c-0.553,0-1-0.448-1-1s0.447-1,1-1h10c0.553,0,1,0.448,1,1S41.553,14,41,14z"/><path fill="#35c1f1" d="M36,20c-0.553,0-1-0.448-1-1V7c0-0.552,0.447-1,1-1s1,0.448,1,1v12C37,19.552,36.553,20,36,20z"/><path fill="#35c1f1" d="M30.805,17c-0.346,0-0.682-0.179-0.867-0.5c-0.276-0.479-0.112-1.09,0.366-1.366l10.393-6	c0.477-0.276,1.089-0.112,1.366,0.366c0.276,0.479,0.112,1.09-0.366,1.366l-10.393,6C31.146,16.957,30.975,17,30.805,17z"/><path fill="#35c1f1" d="M41.195,17c-0.17,0-0.342-0.043-0.499-0.134l-10.393-6c-0.479-0.276-0.643-0.888-0.366-1.366	s0.889-0.642,1.366-0.366l10.393,6c0.479,0.276,0.643,0.888,0.366,1.366C41.877,16.821,41.541,17,41.195,17z"/><path fill="#35c1f1" d="M17,17c-0.553,0-1-0.448-1-1V8c0-0.552,0.447-1,1-1s1,0.448,1,1v8C18,16.552,17.553,17,17,17z"/><path fill="#35c1f1" d="M13.537,15c-0.346,0-0.682-0.179-0.867-0.5c-0.276-0.478-0.112-1.09,0.366-1.366l6.928-4	C20.44,8.858,21.053,9.021,21.33,9.5c0.276,0.478,0.112,1.09-0.366,1.366l-6.928,4C13.879,14.957,13.707,15,13.537,15z"/><path fill="#35c1f1" d="M20.463,15c-0.17,0-0.342-0.043-0.499-0.134l-6.928-4C12.558,10.59,12.394,9.978,12.67,9.5	c0.276-0.479,0.889-0.642,1.366-0.366l6.928,4c0.479,0.276,0.643,0.888,0.366,1.366C21.145,14.821,20.809,15,20.463,15z"/><path fill="#35c1f1" d="M10,32c-0.553,0-1-0.448-1-1v-8c0-0.552,0.447-1,1-1s1,0.448,1,1v8C11,31.552,10.553,32,10,32z"/><path fill="#35c1f1" d="M6.537,30c-0.346,0-0.682-0.179-0.867-0.5c-0.276-0.478-0.112-1.09,0.366-1.366l6.928-4	c0.476-0.277,1.089-0.113,1.366,0.366c0.276,0.478,0.112,1.09-0.366,1.366l-6.928,4C6.879,29.957,6.707,30,6.537,30z"/><path fill="#35c1f1" d="M13.463,30c-0.17,0-0.342-0.043-0.499-0.134l-6.928-4C5.558,25.59,5.394,24.978,5.67,24.5	c0.276-0.479,0.889-0.643,1.366-0.366l6.928,4c0.479,0.276,0.643,0.888,0.366,1.366C14.145,29.821,13.809,30,13.463,30z"/><path fill="#35c1f1" d="M36,39c-0.553,0-1-0.448-1-1v-6c0-0.552,0.447-1,1-1s1,0.448,1,1v6C37,38.552,36.553,39,36,39z"/><path fill="#35c1f1" d="M33.403,37.5c-0.346,0-0.682-0.179-0.867-0.5c-0.276-0.478-0.112-1.09,0.366-1.366l5.195-3	c0.476-0.276,1.089-0.113,1.366,0.366c0.276,0.478,0.112,1.09-0.366,1.366l-5.195,3C33.745,37.457,33.573,37.5,33.403,37.5z"/><path fill="#35c1f1" d="M38.597,37.5c-0.17,0-0.342-0.043-0.499-0.134l-5.195-3C32.424,34.09,32.26,33.478,32.536,33	c0.276-0.479,0.889-0.643,1.366-0.366l5.195,3c0.479,0.276,0.643,0.888,0.366,1.366C39.278,37.321,38.942,37.5,38.597,37.5z"/><path fill="#35c1f1" d="M22,43c-0.553,0-1-0.448-1-1v-6c0-0.552,0.447-1,1-1s1,0.448,1,1v6C23,42.552,22.553,43,22,43z"/><path fill="#35c1f1" d="M19.403,41.5c-0.346,0-0.682-0.179-0.867-0.5c-0.276-0.478-0.112-1.09,0.366-1.366l5.195-3	c0.477-0.276,1.089-0.112,1.366,0.366c0.276,0.478,0.112,1.09-0.366,1.366l-5.195,3C19.745,41.457,19.573,41.5,19.403,41.5z"/><path fill="#35c1f1" d="M24.597,41.5c-0.17,0-0.342-0.043-0.499-0.134l-5.195-3C18.424,38.09,18.26,37.478,18.536,37	c0.276-0.479,0.889-0.642,1.366-0.366l5.195,3c0.479,0.276,0.643,0.888,0.366,1.366C25.278,41.321,24.942,41.5,24.597,41.5z"/></svg>