<svg xmlns="http://www.w3.org/2000/svg"  viewBox="0 0 48 48" preserveAspectRatio="xMinYMin" width="auto" height="auto"><linearGradient id="IReM8hnkGrUdIUgt0ilsIa" x1="21.313" x2="25.618" y1="6.079" y2="31.448" gradientUnits="userSpaceOnUse"><stop offset="0" stop-color="#fcfcfc"/><stop offset="1" stop-color="#c3c9cd"/></linearGradient><path fill="url(#IReM8hnkGrUdIUgt0ilsIa)" d="M34,11c-0.331,0-0.657,0.018-0.98,0.049C30.741,7.99,27.108,6,23,6	c-5.713,0-10.52,3.837-12.012,9.071C7.049,15.569,4,18.925,4,23c0,4.418,3.582,8,8,8c1.818,0,20.107,0,22,0c5.523,0,10-4.477,10-10	C44,15.477,39.523,11,34,11z"/><path fill="#199be2" d="M17,45c-0.552,0-1-0.448-1-1v-6c0-0.552,0.448-1,1-1s1,0.448,1,1v6C18,44.552,17.552,45,17,45z"/><path fill="#199be2" d="M14.403,43.5c-0.346,0-0.682-0.179-0.867-0.5c-0.276-0.479-0.112-1.09,0.366-1.366l5.196-3	c0.479-0.277,1.09-0.112,1.366,0.366c0.276,0.479,0.112,1.09-0.366,1.366l-5.196,3C14.744,43.457,14.572,43.5,14.403,43.5z"/><path fill="#199be2" d="M19.597,43.5c-0.169,0-0.341-0.043-0.499-0.134l-5.196-3C13.423,40.09,13.26,39.479,13.536,39	s0.886-0.643,1.366-0.366l5.196,3c0.479,0.276,0.642,0.888,0.366,1.366C20.279,43.321,19.943,43.5,19.597,43.5z"/><path fill="#199be2" d="M31,40c-0.256,0-0.512-0.098-0.707-0.293c-0.391-0.391-0.391-1.023,0-1.414l2-2	c0.391-0.391,1.023-0.391,1.414,0s0.391,1.023,0,1.414l-2,2C31.512,39.902,31.256,40,31,40z"/><path fill="#199be2" d="M33,40c-0.256,0-0.512-0.098-0.707-0.293l-2-2c-0.391-0.391-0.391-1.023,0-1.414s1.023-0.391,1.414,0	l2,2c0.391,0.391,0.391,1.023,0,1.414C33.512,39.902,33.256,40,33,40z"/></svg>