<svg xmlns="http://www.w3.org/2000/svg"  viewBox="0 0 48 48" preserveAspectRatio="xMinYMin" width="auto" height="auto"><linearGradient id="JgMsOUiIuHFciez5Ufdh2a" x1="21.313" x2="25.618" y1="6.079" y2="31.448" gradientUnits="userSpaceOnUse"><stop offset="0" stop-color="#fcfcfc"/><stop offset="1" stop-color="#c3c9cd"/></linearGradient><path fill="url(#JgMsOUiIuHFciez5Ufdh2a)" d="M34,11c-0.331,0-0.657,0.018-0.98,0.049C30.741,7.99,27.108,6,23,6	c-5.713,0-10.52,3.837-12.012,9.071C7.049,15.569,4,18.925,4,23c0,4.418,3.582,8,8,8c1.818,0,20.107,0,22,0c5.523,0,10-4.477,10-10	C44,15.477,39.523,11,34,11z"/><path fill="#199be2" d="M34.414,41.414c-0.781,0.781-2.047,0.781-2.828,0c-0.781-0.781-0.781-2.047,0-2.828	C32.367,37.805,36,37,36,37S35.195,40.633,34.414,41.414z"/><path fill="#199be2" d="M17.414,42.414c-0.781,0.781-2.047,0.781-2.828,0c-0.781-0.781-0.781-2.047,0-2.828	C15.367,38.805,19,38,19,38S18.195,41.633,17.414,42.414z"/><linearGradient id="JgMsOUiIuHFciez5Ufdh2b" x1="24.977" x2="24.977" y1="20.913" y2="40.566" gradientUnits="userSpaceOnUse"><stop offset="0" stop-color="#f19900"/><stop offset="1" stop-color="#e36001"/></linearGradient><path fill="url(#JgMsOUiIuHFciez5Ufdh2b)" d="M25,39.644V33h-4.483c-0.718,0-1.202-0.734-0.919-1.394l4.41-10.289	C24.229,20.8,25,20.958,25,21.521V29h4.437c0.73,0,1.214,0.756,0.908,1.419l-4.358,9.442C25.755,40.365,25,40.199,25,39.644z"/></svg>