<svg xmlns="http://www.w3.org/2000/svg"  viewBox="0 0 48 48" preserveAspectRatio="xMinYMin" width="auto" height="auto"><linearGradient id="iVi~tMQSpFuKTZqQ8ghpQa" x1="21.313" x2="25.618" y1="6.079" y2="31.448" gradientUnits="userSpaceOnUse"><stop offset="0" stop-color="#fcfcfc"/><stop offset="1" stop-color="#c3c9cd"/></linearGradient><path fill="url(#iVi~tMQSpFuKTZqQ8ghpQa)" d="M34,11c-0.331,0-0.657,0.018-0.98,0.049C30.741,7.99,27.108,6,23,6	c-5.713,0-10.52,3.837-12.012,9.071C7.049,15.569,4,18.925,4,23c0,4.418,3.582,8,8,8c1.818,0,20.107,0,22,0c5.523,0,10-4.477,10-10	C44,15.477,39.523,11,34,11z"/><linearGradient id="iVi~tMQSpFuKTZqQ8ghpQb" x1="27.069" x2="27.721" y1="33.551" y2="38.051" gradientUnits="userSpaceOnUse"><stop offset="0" stop-color="#2aa4f4"/><stop offset=".595" stop-color="#0f80e3"/><stop offset="1" stop-color="#006dd9"/></linearGradient><path fill="url(#iVi~tMQSpFuKTZqQ8ghpQb)" d="M29,36.5c0,0.828-0.672,1.5-1.5,1.5S26,37.328,26,36.5c0-0.681,1.015-2.353,1.375-2.925	c0.058-0.093,0.191-0.093,0.25,0C27.985,34.147,29,35.819,29,36.5z"/><linearGradient id="iVi~tMQSpFuKTZqQ8ghpQc" x1="25.712" x2="26.148" y1="41.034" y2="44.034" gradientUnits="userSpaceOnUse"><stop offset="0" stop-color="#2aa4f4"/><stop offset=".595" stop-color="#0f80e3"/><stop offset="1" stop-color="#006dd9"/></linearGradient><path fill="url(#iVi~tMQSpFuKTZqQ8ghpQc)" d="M27,43c0,0.552-0.448,1-1,1s-1-0.448-1-1c0-0.454,0.677-1.569,0.917-1.95	c0.039-0.062,0.128-0.062,0.166,0C26.323,41.431,27,42.546,27,43z"/><linearGradient id="iVi~tMQSpFuKTZqQ8ghpQd" x1="20.712" x2="21.148" y1="34.034" y2="37.034" gradientUnits="userSpaceOnUse"><stop offset="0" stop-color="#2aa4f4"/><stop offset=".595" stop-color="#0f80e3"/><stop offset="1" stop-color="#006dd9"/></linearGradient><path fill="url(#iVi~tMQSpFuKTZqQ8ghpQd)" d="M22,36c0,0.552-0.448,1-1,1s-1-0.448-1-1c0-0.454,0.677-1.569,0.917-1.95	c0.039-0.062,0.128-0.062,0.166,0C21.323,34.431,22,35.546,22,36z"/><linearGradient id="iVi~tMQSpFuKTZqQ8ghpQe" x1="19.069" x2="19.721" y1="40.551" y2="45.051" gradientUnits="userSpaceOnUse"><stop offset="0" stop-color="#2aa4f4"/><stop offset=".595" stop-color="#0f80e3"/><stop offset="1" stop-color="#006dd9"/></linearGradient><path fill="url(#iVi~tMQSpFuKTZqQ8ghpQe)" d="M21,43.5c0,0.828-0.672,1.5-1.5,1.5S18,44.328,18,43.5c0-0.681,1.015-2.353,1.375-2.925	c0.058-0.093,0.191-0.093,0.25,0C19.985,41.147,21,42.819,21,43.5z"/></svg>